Coordinates
nRows=5
nColumns=38

# SIMM Motion File Header:
name Coordinates
datacolumns 38
datarows 5
otherdata 1
range 0.42099999999999999000 0.42499999999999999000

Units are S.I. units (second, meters, Newtons, ...)
Angles are in degrees.

endheader
time	pelvis_tilt	pelvis_list	pelvis_rotation	pelvis_tx	pelvis_ty	pelvis_tz	hip_flexion_r	hip_adduction_r	hip_rotation_r	knee_angle_r	ankle_angle_r	subtalar_angle_r	mtp_angle_r	hip_flexion_l	hip_adduction_l	hip_rotation_l	knee_angle_l	ankle_angle_l	subtalar_angle_l	mtp_angle_l	lumbar_extension	lumbar_bending	lumbar_rotation	arm_flex_r	arm_add_r	arm_rot_r	elbow_flex_r	pro_sup_r	wrist_flex_r	wrist_dev_r	arm_flex_l	arm_add_l	arm_rot_l	elbow_flex_l	pro_sup_l	wrist_flex_l	wrist_dev_l
      0.42099999999999999000	     -1.17790968648138360000	      0.14012961148591949000	     -0.59278358502424588000	      0.82756889719533655000	      1.01528865743991780000	     -0.33087728910566955000	     22.08235297151642800000	      3.92941677832451490000	      3.82976534272508750000	     -8.30767340205263060000	      3.06171126625688080000	      0.00000000000000000000	      0.00000000000000000000	    -15.86781402259941000000	      4.48287237217375620000	      6.31868723933636200000	    -39.67106822438570600000	    -26.51426355051624400000	      0.00000000000000000000	      0.00000000000000000000	     -9.21851875375864080000	     -2.88752384587814780000	    -10.63394286737475100000	    -34.59346793218467300000	    -11.89553319992807300000	    -14.06261383888165800000	     90.55622132987582500000	     72.88077975999179600000	      0.00000000000000000000	      0.00000000000000000000	     -2.96728595061254150000	    -24.24815595628654900000	      6.52078073733816410000	    109.63975907819790000000	     96.44182383535307700000	      0.00000000000000000000	      0.00000000000000000000
      0.42199999999999999000	     -1.06566498417072260000	      0.11807447305046256000	     -0.58117848426017904000	      0.82751679159181457000	      1.01496462707405020000	     -0.33090558232816214000	     21.98332483471452600000	      3.96197927426292520000	      3.74859067969481210000	     -8.48644322097004710000	      3.06638888780390810000	      0.00000000000000000205	     -0.00000000000000001215	    -15.77589937080066700000	      4.48393675582259470000	      6.31853259956364520000	    -40.25670239254073800000	    -26.50734911084043000000	     -0.00000000000000000033	     -0.00000000000000000189	     -9.38041297282464900000	     -2.83706371334659520000	    -10.58078535897254800000	    -34.51859742965615400000	    -11.91045496738899000000	    -14.09536791360555000000	     90.61886231896839700000	     72.84620937763131100000	      0.00000000000000000034	     -0.00000000000000000121	     -2.93754046018054150000	    -24.25427705680460000000	      6.61685448895506580000	    109.56539741982012000000	     96.41011866874606500000	     -0.00000000000000000018	      0.00000000000000000038
      0.42299999999999999000	     -0.95182328451165532000	      0.09579660963680129700	     -0.57048818024381909000	      0.82746274015495391000	      1.01463392962824540000	     -0.33093314813516694000	     21.88387597761946100000	      3.99524170451226810000	      3.66903066272711340000	     -8.67644959725974200000	      3.08696868188275620000	     -0.00000000000000000127	     -0.00000000000000002222	    -15.68378012690444800000	      4.48444196497101100000	      6.31422330453859890000	    -40.84341903941465500000	    -26.49702440873888800000	     -0.00000000000000000122	     -0.00000000000000000251	     -9.54432623895696610000	     -2.78633987350623700000	    -10.52659254166642500000	    -34.44244058654678800000	    -11.92807264521482900000	    -14.12659044322535500000	     90.68189981886556000000	     72.80972288632337100000	      0.00000000000000000078	     -0.00000000000000000190	     -2.90908158921815780000	    -24.25986266509658800000	      6.71091717790669760000	    109.48962780923492000000	     96.37874958651322300000	     -0.00000000000000000040	     -0.00000000000000000024
      0.42399999999999999000	     -0.83661539825846531000	      0.07295556896688217000	     -0.56102619410155885000	      0.82740610250807411000	      1.01429692107877820000	     -0.33095970001924097000	     21.78453198087570500000	      4.02943912715782470000	      3.58963941406622040000	     -8.87783475220230930000	      3.09967063176525980000	     -0.00000000000000001275	     -0.00000000000000002949	    -15.59115675456846600000	      4.48403135052853050000	      6.30524913677527810000	    -41.43119201384439500000	    -26.48324557051950000000	     -0.00000000000000000311	     -0.00000000000000000277	     -9.71005626255941400000	     -2.73498862592283180000	    -10.47100274754231800000	    -34.36486887116377900000	    -11.94850330619575900000	    -14.15630489091510600000	     90.74520360336281000000	     72.77132091332009600000	     -0.00000000000000000084	     -0.00000000000000000160	     -2.88183632866072110000	    -24.26473200988220200000	      6.80296372050191330000	    109.41224496256413000000	     96.34788805873815000000	     -0.00000000000000000039	     -0.00000000000000000130
      0.42499999999999999000	     -0.72014398313656847000	      0.04975293159395321300	     -0.55259674545276660000	      0.82734689880986134000	      1.01395338418553170000	     -0.33098549003104899000	     21.68532841417179600000	      4.06429477443372630000	      3.51063984978671640000	     -9.09035671681422560000	      3.10845148754639670000	     -0.00000000000000002522	     -0.00000000000000002690	    -15.49790612751242800000	      4.48280227551496060000	      6.29180351792083230000	    -42.01997514592125100000	    -26.46597421453266800000	     -0.00000000000000000675	      0.00000000000000000119	     -9.87747576034755430000	     -2.68322990992448140000	    -10.41425301138229500000	    -34.28592027795004800000	    -11.97172687211635600000	    -14.18449481674049100000	     90.80880073294969200000	     72.73103109689627400000	     -0.00000000000000000193	     -0.00000000000000000072	     -2.85585806092156470000	    -24.26897483275719500000	      6.89296408735410360000	    109.33332938707208000000	     96.31756727968660000000	      0.00000000000000000013	     -0.00000000000000000416
